<?xml version="1.0" encoding="UTF-8"?><svg xmlns="http://www.w3.org/2000/svg" viewBox="0 0 1554.34 1046.4"><defs><style>.cls-1{fill:#efeae8;}.cls-2{stroke:#c69a89;}.cls-2,.cls-3{fill:none;}.cls-2,.cls-3,.cls-4{stroke-miterlimit:10;}.cls-2,.cls-4{stroke-width:4px;}.cls-5{fill:#1e6048;}.cls-6{fill:#f6d9cb;}.cls-3{stroke:#921a23;stroke-width:3px;}.cls-7{fill:#921a23;}.cls-8{fill:#d8b8ab;}.cls-9{fill:#2c7c61;}.cls-10{fill:#d37f40;}.cls-11{fill:#c69a89;}.cls-12{fill:#ff6565;}.cls-13,.cls-4{fill:#1d1d1b;}.cls-4{stroke:#1d1d1b;}</style></defs><g id="Ebene_5"><path class="cls-6" d="m832.72,381.3v-.02s.03-12.1.03-12.1l4.83-27.39-2.03-19.02-4.55-8.88-2.23-8.68-15.54-6.28-15.48-6.23-16.13-9.46-7.36-6.37-3.83-7.66-2.2-11.19-8.52,12.98-4.84,6.74-9.07,10.32-10.04,8.38-13.58,8.33-12.26,5.38-20.09,6.79-16.44,5.32-19.09,6.82-11.78,4.48-15.57,5.87-11.13,5.12-11.41,7.8-11.82,9.9-7.14,9.27-3.77,6.52,9.52,51.6,12.42,33.51,12.25,19.42,17.16,18.47,21.04,14.68,21,8.95,22.66,4.89,20.37.93,24.9-5.27,21.97-9.79,12.87-8.89,18.77-19.43,17.58-27.91,8.56-19.28,2.46-30.13,1.8-14.9,5.31-12.65c.1-.33.23-.65.4-.95Z"/><path class="cls-6" d="m581.32,375.35c2.44-.92,2.03-.76,1.59-.65.11.63.11,1.29,0,1.92v3.23s-1.11-.62-1.11-.62l-.49-3.88Z"/><polygon class="cls-6" points="653.74 586.83 660.69 583.39 665.18 575.84 667.43 567.37 667.39 553.67 665.99 544.11 663.95 531.91 662.41 522.8 661.02 519.22 672.81 524.19 691.15 528.14 708.08 530.03 725.77 528.86 745.79 524.28 759.46 517.88 764.96 515.43 762.77 527.92 762.21 539.51 762.44 551.13 763.31 559.99 766.38 567.22 770.59 569.17 778.26 572.71 783.24 575.02 785.01 575.84 781.82 584.9 781.82 591.6 782.2 597.18 785.01 604.74 786.63 613.09 787.37 617.7 784.13 624.58 772.31 638.68 755.98 650.87 738.8 658.5 724.84 661.71 708.55 662.55 693.32 660.36 682 657.58 673.35 653.17 669.85 649.27 666.17 638.3 661.55 626.33 655.65 613.03 652.75 607.1 653.74 600.45 653.74 586.83"/><polygon class="cls-10" points="827.01 193.63 834.49 190.7 844.24 192.17 852.62 197.98 858.69 206.58 864.21 219.47 868.49 232.32 873.4 252.25 875.23 262.93 877.56 288.63 877.9 302.41 877.9 320.28 877.02 341.46 876.49 357.57 876.24 379.85 877.9 406.13 880.04 424.79 882.97 438.63 885.61 448.58 889.74 461.91 896.34 480.17 902.3 495.08 909.8 512.91 914.22 523.27 919.67 536.24 926.62 553.67 932.02 568.61 937.13 584.9 940.63 595.51 943.15 608.7 944.21 615.36 947.36 627.96 940.63 627.96 935.13 626.07 923.29 624.58 911.62 620.14 900.3 617.7 892.59 613.72 889.74 613.03 887.18 619.03 884.92 632.28 887.18 654.59 894.2 671.86 906.11 691.87 911.16 701.19 917.05 717.27 919.18 729.25 919.67 744.31 917.81 756.08 914.07 768.65 908.93 780.29 904.57 788.85 898.9 800.05 894.82 809.36 890.78 823.27 889.74 837.55 891.66 846.26 902.3 862.76 919.67 872.28 935.62 880.45 926.94 886.06 909.57 890.66 893.31 896.38 874.59 895.75 857.93 891.88 840.17 882.31 830.89 872.95 823.75 860.55 821.13 850.98 820.21 840.11 823.75 829.22 828.77 817.54 834.49 803.29 836.55 792.62 835.54 777.59 830.9 762.6 821.13 748.19 814.7 732.32 803.85 719.14 795.73 706.51 788.91 689.38 786.81 673.12 787.89 650.36 789.57 637.89 788.55 624.58 787.37 617.7 785.01 607.75 782.2 597.18 781.82 584.9 785.01 575.84 778.26 572.71 770.59 569.17 766.38 567.22 764.15 565.19 762.62 553.67 762.18 536.79 764.15 520.09 764.96 515.43 777.84 506.54 791.11 495.94 799.79 487.11 807.45 475.51 812.55 462.74 821.13 447.43 823.28 430.57 825.2 409.79 828.77 390.72 832.74 369.18 837.57 346.32 837.57 333.04 834.49 320.01 830.99 313.9 828.77 308.69 820.21 301.64 807.7 296.79 797.74 292.7 785.74 285.81 778.34 281.21 774.26 276.87 770.43 269.21 768.22 258.02 759.7 271 756.64 275.6 750.51 283 743.36 290.66 732.79 298.68 719.84 306.1 706.21 311.43 695.87 314.91 681.32 319.77 664.21 325.13 654.29 329.07 642.51 333.55 626.94 339.43 614.17 345.3 598.6 356.53 588.64 365.98 581.66 378.04 583.77 388.28 585.98 406.12 588.64 420.93 594.51 440.79 598.2 452.57 605.65 466.38 613.4 479.6 624.72 492.12 635.55 503.3 647.44 511.1 654.05 515.71 661.02 519.22 662.41 522.8 663.95 531.91 665.99 544.11 667.39 553.67 667.42 563.01 667.83 571.01 665.18 575.84 660.69 583.39 653.74 586.83 652.75 584.9 647.44 584.9 640.29 584.9 644.85 592.49 651.26 604.19 655.65 613.03 661.55 626.33 666.17 638.3 669.17 647.25 672.25 657.91 674.93 668.02 674.93 681.53 674.11 692.01 670.43 708.58 664.63 725.5 659.06 739.38 653.74 751.5 647.44 759.43 638.6 773.23 633.16 782.26 629.54 800.05 631.66 815.35 638.1 830.29 555.68 800.05 549.81 796.42 543.73 785.41 543.73 767.6 547.02 754.32 554.68 739.51 559.88 713.48 560.95 691.44 557.94 672.06 548.64 650.36 539.88 636.4 534.26 640.63 518.68 647.25 501.11 650.87 484.68 654.11 478.57 655.08 474.6 643.77 472.45 622.67 473.98 608.5 477.98 594.19 478.57 586.83 481.41 553.67 484.68 534.03 490.07 512.91 494.78 489.85 496.21 467.35 497.31 436.3 500.86 413.01 509.36 384.84 518.68 358.59 528.82 315.65 529.92 301.42 530.88 277.39 532.31 258.26 536.68 236.29 547.26 212.85 560.61 198.23 572.89 190.6 591.7 181.86 601.87 176.45 612.22 169.44 623.26 160.94 636.74 151.03 649.29 143.96 666.02 138.59 685.88 136.18 710.98 135.94 731.41 137.41 745.79 139.02 761.64 141.85 774.4 145.17 788.84 150.41 799.55 155.66 809.52 161.94 821.13 171.84 826 178.5 828.23 183.98 827.01 193.63"/><path class="cls-9" d="m381.73,776.95l6.36-20.08,13.04-18.88,16.34-22.27,18.89-34.2,14.19-23.62,21.91-2,28.66-5.04,33.14-10.24,5.62-4.23,16.85,26.15,4.35,24.37-1.2,26.57-5.2,26.03-10.95,28.09v11.23c-.26,1.8-.47,4.9.57,8.51,1.37,4.75,4.13,7.75,5.52,9.07,1.95,1.21,3.91,2.42,5.86,3.64l42.28,15.51,40.14,14.73,9.35,13.56,14.1,12.59,8.14,6.31c-5.8-3.98-12.91-9.71-19.86-17.72-9.53-10.97-15.02-21.89-18.17-29.69-1.06-4.3-2.08-10.54-1.56-18.04.43-6.18,1.77-11.3,3.06-15.06,2.99-4.47,5.98-8.95,8.96-13.42l11.62-17.33,10.88-26.01,8.52-21.22,1.78-22.75v-13.51l-2.68-10.11-3.08-10.66,12.83,10.33,26.55,4.97,30.25-4.05,17.18-7.63,16.33-12.19,11.82-14.09,3.24-6.88,2.2,20.2-1.68,12.47-1.08,22.76,2.76,21.37,14.28,24.65,10.84,13.18,11.19,11.99,8.6,28.7,1.62,12.93-1.62,17.35-10.73,25.93-2.62,21.76,2.62,9.57,12.35,17.66,10.58,8.52,15.4,7.51,12.5,1.51,18.72.63,16.27-5.72,17.36-4.6,8.68-5.62-15.95-8.17-17.37-9.52-7.58-11.75-4.98-13.45,1.03-14.28,4.05-13.91,9.75-20.51,9.5-20.2,3.74-12.57,1.86-11.77-.49-15.06-5.8-22-7.28-15.39-14.4-24.36-4.52-12.92-2.26-22.31,2.26-13.25,5.41-5.3,7.71,3.97,22.98,6.88,11.84,1.49,12.23,6.72,18.38,17.57,23.54,21.7,20.7,22.43,17.97,22.78,12.36,17.97,4.11,6.49,4.57,177.02H361.66l20.07-141.79Z"/><polygon class="cls-5" points="642.09 587.89 647.44 586.4 652.75 584.9 654.29 584.9 654.29 589.89 655.27 598.57 653.74 604.19 652.75 605.21 649.16 600.35 644.21 591.09 642.09 587.89"/><path class="cls-5" d="m453.89,657.58c16.53,4.43,41.99,13.58,67.6,33.42,16.04,12.43,27.61,25.54,35.64,36.26,2.44-8.74,4.74-21.1,3.82-35.82-.46-7.35-1.63-13.87-3.01-19.39-1.04-4.59-2.7-10.1-5.42-16.04-3.94-8.59-8.72-15.09-12.63-19.61-10.26,5.05-23.27,10.4-38.76,14.47-18.23,4.79-34.47,6.38-47.22,6.71Z"/><path class="cls-8" d="m762.21,539.51c-8.83,7.41-27.94,21.19-55.19,24.17-10.08,1.1-19,.48-26.21-.67-1.87,5.02-3.73,11.64-4.43,19.57-1.26,14.36,1.93,25.98,4.43,32.79,2.92,6.04,7.36,13.54,14.13,21,13.61,15.02,29.22,21.77,37.96,24.77-7.74,1.66-20.37,3.3-35.4.43-10.18-1.95-18.34-5.38-24.14-8.39-3.93-8.95-7.87-17.89-11.8-26.84l-7.8-22.14-.99-19.29c.51.41,1.01.63,1.5.74,5.79,1.26,13.13-13.7,13.57-14.63-.03-8.26-.55-17.66-2-27.93-1.24-8.82-2.95-16.8-4.81-23.86,7.21,3.6,18.26,8.08,32.39,10.08,13.36,1.89,24.63.87,32.37-.44,5.77-1.23,12.11-2.89,18.87-5.18,5.41-1.83,14.22-5.53,18.68-7.52.92,7.21-2.03,16.14-1.12,23.35Z"/><path class="cls-8" d="m687.45,528.28c-14.36-8.96-49.19-35.78-70.47-82.39-17.76-38.9-17.33-74.1-16-91.08-3.55,2.3-8.83,6.37-13.36,12.93-2.93,4.24-4.7,8.3-5.8,11.49.24,22.31,4.34,39.74,7.93,51.34,2.53,8.16,5.45,15.5,8.46,22,2.96,8.55,8.61,21.46,19.46,34.51,9.42,11.33,19.36,18.67,26.55,23.15,4.33,3.99,12.89,10.74,25.53,13.96,6.97,1.78,13.13,4.34,17.7,4.09Z"/><polygon class="cls-1" points="675.05 397.13 675.24 404.28 677.12 407.77 684.06 408.29 701.88 407.09 723.56 406.06 737.62 406.06 741.75 405.72 744.75 402.32 745.15 395.94 743.59 394.25 733.76 393.85 715.48 393.85 693.7 394.83 678.36 396.79 675.05 397.13"/><polygon class="cls-12" points="682.13 438.25 687.45 433.27 700.41 426.41 708.13 424.89 718.09 425.72 729.56 428.76 739.28 434.4 741.32 435.94 739.18 439.94 732.38 447.68 723.96 453.3 718.12 455.06 709.91 454.58 698.17 450.49 688.47 445.64 682.13 438.25"/><polygon class="cls-7" points="682.13 439.94 677.74 431.6 672.2 420.11 672.38 406.83 673.4 398.66 675.78 398.66 675.18 402.16 677.12 407.77 681.06 408.87 687.76 408.29 700.41 407.18 716.3 406.41 729.56 406.06 735.7 406.32 741.75 405.72 744.75 402.32 744.77 397.38 747.38 401.07 748.05 407.09 748.05 415.51 747.45 421.89 744.77 429.51 742.85 434.4 741.32 435.94 732.13 430.06 723.7 425.98 713.62 424.79 704.81 424.89 696.82 427.71 692.04 430.06 685.91 434.4 682.13 439.94"/></g><g id="Ebene_3"><path class="cls-13" d="m700.01,375.76c6.73,1.49,13.81.99,20.23-1.53.75-.3,1.28-1,1.05-1.85-.2-.72-1.09-1.35-1.85-1.05-5.93,2.33-12.41,2.91-18.64,1.53-1.88-.42-2.68,2.48-.8,2.89h0Z"/><path class="cls-2" d="m582.95,379.05c2.16,27.11,6.5,56.12,18.53,80.81,10.57,21.67,27.66,41.24,48.45,53.58,22.05,13.09,47.9,19.4,73.47,16.25,23.22-2.86,44.7-13.34,61.77-29.25,16.22-15.12,28.23-34.47,35.93-55.2.95-2.56.13.04.95-2.56"/><ellipse class="cls-4" cx="647.75" cy="353.43" rx="7.44" ry="12.31" transform="translate(-2.16 3.98) rotate(-.35)"/><ellipse class="cls-4" cx="775.71" cy="352.65" rx="7.69" ry="12.31" transform="translate(-2.15 4.76) rotate(-.35)"/><path class="cls-13" d="m814.43,199.76c-8.38,12.43-19.25,23.11-31.83,31.26-1.61,1.05-.11,3.64,1.51,2.59,13.02-8.44,24.23-19.46,32.9-32.34,1.08-1.61-1.52-3.11-2.59-1.51h0Z"/><path class="cls-13" d="m576.87,423.46c-.09-10.54-.54-21.25,1.65-31.63,1.9-9.02,6.02-17.85,12-24.89,9.49-11.17,21.86-19.18,35.14-25.08,9.35-4.15,18.99-7.68,28.6-11.18s18.41-6.53,27.66-9.7c18.31-6.27,37.82-10.66,53.6-22.44,14.61-10.91,26.54-25.36,34.37-41.84,1.07-2.24,2.05-4.52,2.97-6.83.53-1.32-1.16-2.22-2.2-1.69-5.34,2.69-5.13,9.73-4.13,14.75,1.32,6.61,4.49,12.41,9.25,17.18,2.62,2.63,5.61,5.21,8.86,7.01,3.8,2.09,7.61,4.17,11.46,6.16,7.43,3.84,15.07,7.39,23.07,9.86,8.89,2.75,18.21,4.05,27.5,3.12,1.9-.19,1.92-3.19,0-3-15.66,1.56-30.6-3.48-44.49-10.27-3.66-1.79-7.27-3.69-10.85-5.63-3.35-1.81-6.67-3.52-9.63-5.94-5.25-4.28-9.39-9.33-11.39-15.87-1.3-4.24-3.21-12.22,1.86-14.77l-2.2-1.69c-6.95,17.35-18.41,32.78-32.94,44.52-7.59,6.13-16.01,10.74-25.11,14.2s-18.71,6.15-28.03,9.34c-18.98,6.49-38.08,12.9-56.56,20.75-7.09,3.01-14.07,6.37-20.47,10.67-5.73,3.85-10.9,8.43-15.75,13.33-6.49,6.55-11.19,14.78-14,23.54-3.11,9.7-3.38,20.04-3.32,30.15.02,2.63.06,5.26.08,7.88.02,1.93,3.02,1.93,3,0h0Z"/><path class="cls-13" d="m827.76,194.93c5.07-3.75,11.78-3.47,17.29-.77,5.92,2.9,9.93,8.44,12.86,14.17,3.35,6.55,5.75,13.65,7.98,20.64,2.32,7.31,4.26,14.74,5.79,22.25,6.26,30.7,4.85,62.13,3.74,93.24s-1.54,61.55,5.42,91.68c6.52,28.2,18.01,54.89,29.33,81.42,11.86,27.78,23.12,55.67,30.08,85.15.9,3.79,1.73,7.6,2.51,11.42.39,1.89,3.28,1.09,2.89-.8-3.19-15.64-7.37-31.08-12.55-46.18-4.81-14.02-10.43-27.74-16.21-41.38-11.64-27.51-24.04-54.89-31.57-83.9-3.91-15.07-6.21-30.41-7.08-45.94s-.51-31.9.04-47.84c1.09-31.67,2.78-63.62-3.18-94.94-2.84-14.93-7.04-30.07-13.43-43.9-5.02-10.87-14.43-21.65-27.65-19.98-2.83.36-5.48,1.38-7.78,3.08-1.54,1.14-.04,3.74,1.51,2.59h0Z"/><path class="cls-13" d="m829.43,193.18c3.39-10.83-4.72-20.85-12.5-27.39-8.41-7.08-17.92-12.69-28.03-16.97-20.65-8.76-43.18-12.1-65.43-13.51-11.75-.75-23.59-1.16-35.36-.73-12.51.46-25.17,2.14-36.83,6.91-22.01,8.99-37.76,28.12-59.05,38.46-10.72,5.2-22.15,9.24-31.74,16.49-8.25,6.23-14.63,14.57-19.2,23.8-10.72,21.67-11.54,46.05-12.39,69.73-.49,13.71-1.13,27.46-3.94,40.93-2.58,12.41-6.65,24.44-10.9,36.35s-8.65,23.55-12.11,35.6-5.68,24.81-6.43,37.6c-.81,13.7-.46,27.44-1.46,41.13-.51,7.01-1.4,13.98-2.92,20.84s-3.45,13.32-5.21,19.96c-6.82,25.75-9.15,52.6-6.61,79.13.61,6.37,1.5,12.72,2.65,19.02.34,1.9,3.24,1.09,2.89-.8-4.69-25.92-4.75-52.65-.07-78.57,2.37-13.16,6.64-25.81,9.44-38.86,2.71-12.64,3.28-25.58,3.57-38.47s.32-26.82,2.45-40.06c1.94-12.07,5.48-23.8,9.44-35.34,7.97-23.22,17.48-45.96,20.39-70.53,2.97-25.07.59-50.75,6.51-75.45,2.45-10.21,6.21-20.19,12.04-28.97,6.33-9.55,14.98-16.47,25.12-21.65,10.17-5.19,20.96-9.05,30.64-15.17s18.3-13.69,27.52-20.43c9.67-7.07,19.95-12.69,31.66-15.55s24.48-3.37,36.8-3.22c22.25.27,44.8,1.67,66.44,7.15,10.66,2.7,21.08,6.44,30.78,11.67s19.4,11.55,25.54,20.42c3.22,4.65,5.17,10.09,3.42,15.68-.58,1.85,2.32,2.64,2.89.8h0Z"/><path class="cls-13" d="m523.57,562.25c-9.03,13.38-7.35,30.74-1.83,45.13,6.13,16.01,17.36,29.29,25.79,44.05,4.38,7.67,7.82,15.73,9.8,24.36,1.98,8.67,2.55,17.6,2.11,26.47-.88,18.08-5.85,35.71-12.13,52.6-3.1,8.33-6.54,17.18-5.79,26.24.57,6.88,3.55,13.86,9.23,18.03,1.39,1.02,2.92,1.78,4.53,2.36,1.82.66,2.6-2.24.8-2.89-6.5-2.34-10.17-8.97-11.3-15.46-1.49-8.52,1.63-17.21,4.54-25.09,6.14-16.63,11.31-33.6,12.83-51.35,1.47-17.22-.87-34.53-8.49-50.14-7.43-15.22-18.63-28.22-26.13-43.4-6.58-13.32-10.64-30.41-4.11-44.54.78-1.7,1.71-3.31,2.76-4.86s-1.52-3.11-2.59-1.51h0Z"/><path class="cls-13" d="m573.79,424.79c-3.3,29.72,2.58,60.53,15.04,87.61,6.64,14.43,15.62,27.08,25.56,39.4,10.57,13.1,20.5,26.53,28.98,41.11,8.35,14.37,15.44,29.46,21.11,45.08,5.94,16.35,10.48,33.13,8.57,50.66-1.91,17.55-8.77,34.14-15.43,50.32-3.14,7.62-6.34,15.3-11.17,22.04-4.6,6.42-10.46,11.93-13.94,19.11-6.44,13.28-5.44,29.15.11,42.55s16.1,25.09,27.46,34.5c2.88,2.39,5.85,4.67,8.86,6.89,1.56,1.15,3.05-1.46,1.51-2.59-12.29-9.06-24.02-19.55-31.65-32.95-7.31-12.85-10.32-28.87-5.29-43.08,2.73-7.73,8.23-13.54,13.22-19.86,4.99-6.33,8.55-13.39,11.69-20.79,6.54-15.43,13.21-31.19,16.36-47.72,1.58-8.26,2.22-16.7,1.42-25.09-.81-8.53-2.9-16.86-5.49-25.01-4.88-15.3-11.16-30.18-18.59-44.4-7.46-14.27-16.13-27.9-25.92-40.69-9.98-13.04-20.95-25.24-29.01-39.64-14.64-26.12-22.28-56.81-21.19-86.75.13-3.57.4-7.14.79-10.69.21-1.92-2.79-1.9-3,0h0Z"/><path class="cls-13" d="m652.24,586.83v17.36c0,1.93,3,1.93,3,0v-17.36c0-1.93-3-1.93-3,0h0Z"/><path class="cls-13" d="m652.36,583.45l-10.63,3c-1.86.52-1.07,3.42.8,2.89l10.63-3c1.86-.52,1.07-3.42-.8-2.89h0Z"/><path class="cls-11" d="m657.23,587.69c17.06-10.84,11.87-34.15,9.09-50.71-1.02-6.05-2.04-12.1-3.05-18.15-.32-1.9-3.21-1.09-2.89.8,1.69,10.05,3.55,20.09,5.02,30.17,1.25,8.55,1.87,18.1-1.73,26.21-1.69,3.82-4.44,6.87-7.95,9.1-1.63,1.03-.12,3.63,1.51,2.59h0Z"/><path class="cls-11" d="m765.82,511.85c-3.4,3.15-3.82,7.97-4.22,12.31-.48,5.11-.8,10.24-.89,15.38-.18,10.26.57,20.6,2.96,30.6,1.33,5.57,3.21,10.98,5.63,16.17.81,1.75,3.4.23,2.59-1.51-8.27-17.75-9.1-37.86-7.6-57.09.35-4.43.11-10.46,3.65-13.74,1.42-1.32-.71-3.43-2.12-2.12h0Z"/><path class="cls-11" d="m763.39,567.48c6.96,3.22,13.91,6.44,20.87,9.66,1.74.81,3.27-1.78,1.51-2.59-6.96-3.22-13.91-6.44-20.87-9.66-1.74-.81-3.27,1.78-1.51,2.59h0Z"/><path class="cls-13" d="m889.34,614.48c17.2,4.1,34.19,9.08,50.88,14.93,1.83.64,2.61-2.26.8-2.89-16.69-5.84-33.68-10.83-50.88-14.93-1.88-.45-2.68,2.44-.8,2.89h0Z"/><path class="cls-13" d="m960.97,648.31c12.6,10.42,24.55,21.63,35.73,33.57,11.15,11.89,21.54,24.48,31.09,37.7,5.38,7.45,10.49,15.09,15.33,22.91,1.01,1.64,3.61.13,2.59-1.51-8.64-13.95-18.16-27.35-28.49-40.11s-21.49-24.87-33.36-36.22c-6.7-6.4-13.63-12.55-20.77-18.45-1.48-1.22-3.61.89-2.12,2.12h0Z"/><path class="cls-13" d="m669.67,652.91c16.44,9.11,35.76,12.84,54.41,10.4,17.28-2.27,33.66-9.81,46.77-21.28,3.64-3.19,7.02-6.68,10.07-10.45,3.31-4.08,6.23-8.47,7.9-13.49.61-1.84-2.29-2.62-2.89-.8-2.69,8.11-8.99,15.01-15.13,20.75-6.07,5.67-12.97,10.42-20.4,14.13-15.53,7.76-33.31,10.54-50.47,7.91-10.07-1.54-19.83-4.83-28.74-9.77-1.69-.94-3.2,1.65-1.51,2.59h0Z"/><path class="cls-13" d="m826.95,743.25c-11.04-11.52-22.23-23.33-29.9-37.45-3.78-6.97-6.56-14.45-7.83-22.29-1.4-8.59-1.02-17.38-.39-26.02s1.61-17.53,1.51-26.33c-.04-4.28-.36-8.57-1.06-12.79s-2.03-8.51-3.37-12.7-2.47-8.32-2.59-12.7c-.1-4.07.53-8.09,1.61-12,2.25-8.13,6.24-15.64,10.01-23.14s7.47-15.88,10.11-24.29,4.48-17.11,5.52-25.89c.26-2.2.47-4.4.63-6.61.14-1.93-2.86-1.92-3,0-1.29,17.93-6.12,35.43-14.01,51.56-7.24,14.81-16.84,30.52-12.94,47.69,1,4.41,2.68,8.63,3.85,12.99s1.78,8.61,2.05,12.99c.54,8.76-.25,17.53-.95,26.26s-1.38,17.54-.59,26.29c.74,8.23,2.91,16.13,6.38,23.63,6.78,14.66,17.7,26.98,28.7,38.61,1.37,1.45,2.74,2.89,4.12,4.32s3.46-.73,2.12-2.12h0Z"/><path class="cls-13" d="m828.87,313.59c9.45,11.71,8.02,27.95,5.37,41.78-1.55,8.08-3.64,16.04-5.32,24.1-1.9,9.13-3.52,18.31-4.84,27.54-2.64,18.43-4.13,37.02-4.42,55.64-.22,14.21.57,28.61,4.01,42.45s9.23,25.97,19.16,35.45c1.26,1.2,2.58,2.34,3.94,3.42,1.5,1.19,3.63-.92,2.12-2.12-10.85-8.61-17.61-20.86-21.39-34.02-3.92-13.65-4.95-27.99-4.88-42.14.09-18.38,1.47-36.78,3.95-54.99,1.26-9.24,2.81-18.43,4.65-27.57,1.66-8.24,3.76-16.38,5.44-24.62,2.84-13.86,4.87-29.74-2.57-42.58-.91-1.57-1.97-3.05-3.11-4.46-1.21-1.5-3.32.63-2.12,2.12h0Z"/><path class="cls-13" d="m875.87,503.7c3.79,16.19,13.29,30.06,21.81,44.06,4.45,7.32,8.56,14.81,11.93,22.7s6.13,16.31,8.14,24.77c2.29,9.63,3.64,19.46,4.04,29.36.08,1.92,3.08,1.93,3,0-.71-17.56-4.36-34.99-10.82-51.33-3.17-8.02-7.02-15.73-11.39-23.15-4.27-7.24-8.89-14.27-13.05-21.57-4.61-8.08-8.63-16.52-10.76-25.62-.44-1.88-3.33-1.08-2.89.8h0Z"/><path class="cls-13" d="m477.85,649.96c-5.63-17.74-5.09-37.16,1.29-54.63,1.81-4.95,4.11-9.7,6.83-14.21,1-1.66-1.59-3.17-2.59-1.51-9.93,16.47-14.11,36.28-11.82,55.37.64,5.36,1.76,10.64,3.4,15.78.58,1.83,3.48,1.05,2.89-.8h0Z"/><path class="cls-13" d="m450.54,659.41c22.97-1.28,45.8-5.09,67.93-11.42,6.22-1.78,12.38-3.75,18.47-5.92,1.81-.64,1.03-3.54-.8-2.89-21.43,7.6-43.7,12.87-66.28,15.55-6.42.76-12.87,1.32-19.33,1.68-1.92.11-1.93,3.11,0,3h0Z"/><path class="cls-13" d="m452.83,656.52c-13.08,12.88-20.64,29.82-29.25,45.74-4.43,8.2-9.38,16-14.96,23.47-5.63,7.53-11.59,14.82-16.89,22.59-2.96,4.34-5.72,8.84-8.04,13.56s-5.13,10.21-3.42,15.48c.59,1.83,3.49,1.05,2.89-.8-1.47-4.55,1.32-9.56,3.3-13.55s4.38-7.99,6.91-11.78c5.13-7.71,10.98-14.91,16.56-22.29s10.47-14.71,14.86-22.65c4.33-7.83,8.26-15.87,12.66-23.67,4.88-8.65,10.39-16.98,17.49-23.98,1.38-1.36-.74-3.48-2.12-2.12h0Z"/><path class="cls-13" d="m891.33,603.98c-7.44,14.49-9.69,31.37-6.44,47.33,1.65,8.1,4.88,15.68,8.88,22.88s8.74,14.23,12.83,21.51,7.38,15.01,9.32,23.21,2.62,16.59,2.08,24.95-2.41,16.7-5.43,24.58-7.3,15.78-11.29,23.5c-7.68,14.89-15.02,31.33-12.49,48.5.31,2.1.79,4.17,1.42,6.21.57,1.84,3.47,1.05,2.89-.8-5.17-16.66,1.45-33.93,8.91-48.76,3.83-7.62,8-15.08,11.41-22.9,3.36-7.72,5.81-15.71,6.94-24.06,2.23-16.44-.26-33.39-7.28-48.43-6.95-14.89-18.04-27.7-23.24-43.42-5.07-15.35-4.45-32.39,1.58-47.37.74-1.85,1.59-3.65,2.5-5.42s-1.71-3.23-2.59-1.51h0Z"/><path class="cls-13" d="m897.81,894.58c-15.3,1.3-31.33.03-45.4-6.55-12.79-5.98-23.5-16.64-28.06-30.17-2.24-6.64-2.84-13.73-1.39-20.6,1.56-7.42,4.97-14.24,8.08-21.1s5.95-14.2,6.79-21.95-.08-15.15-2.1-22.4c-4.24-15.2-13.04-28.8-22.72-41.07-1.2-1.53-2.43-3.03-3.67-4.53s-3.35.65-2.12,2.12c10.17,12.25,19.63,25.8,24.64,41.05,2.38,7.27,3.66,14.89,3.17,22.54s-3.13,15.07-6.31,22.15-6.66,13.89-8.41,21.38c-1.63,6.96-1.44,14.18.5,21.06,3.84,13.61,13.73,25.15,25.97,32,13.64,7.64,29.64,10.03,45.09,9.45,1.99-.08,3.97-.2,5.95-.37s1.93-3.16,0-3h0Z"/><path class="cls-13" d="m860.05,687.8c12.04,7.97,20.73,20.4,24.97,34.14,4.33,14.02,4.01,29.26-1.69,42.85-6.6,15.72-18.41,28.6-24.96,44.35-5.36,12.89-5.65,27.37-1.04,40.55,4.35,12.41,13.06,23.68,25.29,29.09,1.54.68,3.11,1.28,4.72,1.78,1.85.58,2.64-2.32.8-2.89-12.68-3.95-22.21-14.36-27.06-26.49-5.07-12.71-5.39-26.93-.43-39.71,6.16-15.86,18.03-28.67,24.86-44.2,5.98-13.6,6.99-28.72,3.26-43.08s-11.51-26.83-22.8-35.76c-1.43-1.13-2.89-2.2-4.41-3.2-1.61-1.07-3.12,1.53-1.51,2.59h0Z"/><path class="cls-13" d="m820.69,695.05c15.51,5.95,29.68,16.15,39.39,29.72s14.59,30.94,12.35,47.88c-1.25,9.46-4.72,18.56-10.33,26.29-1.14,1.56,1.47,3.06,2.59,1.51,10.47-14.44,13.4-33.32,9.8-50.59-3.58-17.15-13.94-32.25-27.5-43.13-7.69-6.17-16.3-11.04-25.5-14.57-1.8-.69-2.58,2.21-.8,2.89h0Z"/><path class="cls-13" d="m820.66,538.73c6.85,12.17,19.41,20.48,33.22,22.27,1.91.25,1.89-2.76,0-3-12.74-1.65-24.34-9.62-30.63-20.78-.95-1.68-3.54-.17-2.59,1.51h0Z"/><path class="cls-13" d="m556.38,487.54c-4.21,18.2,2.14,36.59,11.66,52.04,9.68,15.71,22.96,28.66,34.71,42.76,5.8,6.96,11.25,14.26,15.62,22.22s7.68,17.23,9.46,26.5c3.65,19.01,1.69,38.76-3.23,57.36-5.2,19.66-13.57,38.26-22.22,56.6-1.06,2.24-2.12,4.47-3.18,6.71-.82,1.74,1.76,3.26,2.59,1.51,8.7-18.34,17.45-36.77,23.45-56.2s8.87-38.21,6.82-57.65c-1-9.44-3.18-18.75-6.85-27.52s-8.32-16.12-13.77-23.37c-11.04-14.69-24.54-27.37-35.33-42.25-10.67-14.73-19.55-32.62-17.91-51.3.2-2.23.57-4.43,1.07-6.6.43-1.88-2.46-2.68-2.89-.8h0Z"/><path class="cls-13" d="m775.5,220.27c-11.5-3.91-24.41-2.76-35.08,3.02-1.7.92-.19,3.51,1.51,2.59,10-5.42,22.01-6.37,32.77-2.71,1.83.62,2.62-2.27.8-2.89h0Z"/><path class="cls-13" d="m799.17,197.33c-9.85-10.15-23.37-16.36-37.44-17.53-3.98-.33-7.99-.23-11.95.3-.81.11-1.49.61-1.5,1.5,0,.73.7,1.61,1.5,1.5,13.38-1.78,27.14,1.48,38.38,8.94,3.23,2.14,6.19,4.63,8.89,7.41,1.35,1.39,3.47-.73,2.12-2.12h0Z"/><path class="cls-13" d="m728.5,233.75c-9.75,12.12-20.14,23.79-31.83,34.07-11.88,10.45-25.06,19.02-39.54,25.4s-30.68,11.34-45.65,17.97c-13.47,5.96-26.09,13.7-36.02,24.72-9.06,10.05-15.75,22.71-16.06,36.48-.04,1.67.03,3.35.18,5.01.17,1.91,3.17,1.93,3,0-1.2-13.55,4.26-26.44,12.77-36.77,9.24-11.22,21.32-19.28,34.4-25.37,14.72-6.86,30.3-11.59,45.26-17.88,7.35-3.09,14.53-6.56,21.34-10.73s12.72-8.52,18.6-13.41c11.8-9.82,22.3-21.11,32.07-32.93,1.22-1.47,2.42-2.95,3.61-4.44s-.91-3.63-2.12-2.12h0Z"/><path class="cls-13" d="m728.69,231.69c-19.85,19.32-49.64,19.85-75.52,21.69-14.51,1.03-29.27,2.61-42.87,8.1-11.18,4.52-21.37,11.34-29.87,19.88-9.56,9.6-16.93,21.32-21.29,34.15-.62,1.83,2.27,2.62,2.89.8,7.71-22.73,25.39-41.66,47.37-51.23,26.4-11.49,56.13-7.14,83.76-12.96,13.82-2.91,27.4-8.34,37.65-18.32,1.39-1.35-.74-3.47-2.12-2.12h0Z"/><path class="cls-13" d="m810.45,240.6c8,5.15,14.16,12.95,17.28,21.94.63,1.81,3.53,1.03,2.89-.8-3.39-9.75-9.98-18.14-18.66-23.73-1.63-1.05-3.13,1.55-1.51,2.59h0Z"/><path class="cls-13" d="m824.3,214.12c12.19.21,23.45,9.14,26.49,20.93.48,1.87,3.38,1.08,2.89-.8-3.37-13.09-15.88-22.9-29.38-23.14-1.93-.03-1.93,2.97,0,3h0Z"/><path class="cls-3" d="m672.68,400.55c.14-1.1.99-1.99,2.09-2.21,9.53-1.89,20.52-3.45,32.75-4.13,13.83-.77,26.25-.23,36.88.85,1.14.12,2.06.96,2.3,2.08,1.47,6.95,4.59,28.53-9.41,45.28-3.92,4.69-8.3,7.95-12.21,10.21-3.1,1.79-6.66,2.6-10.23,2.4-6.24-.35-15.53-2.05-24.18-8.41-13.62-10.02-20.38-27.74-17.98-46.08Z"/><path class="cls-3" d="m676.26,398.05c-.32,1.17-.69,3.12-.33,5.48.13.85.33,1.63.58,2.34.73,2.11,2.96,3.38,5.32,3.1,8.19-.99,16.99-1.78,26.32-2.23,10.72-.52,20.77-.53,30.06-.2,3.13.11,5.92-2,6.41-4.93.13-.8.19-1.67.12-2.59-.13-1.72-.67-3.09-1.14-4.02-9.51-.78-20.34-1.15-32.24-.67-13.11.52-24.9,1.96-35.1,3.73Z"/><path class="cls-3" d="m682.13,438.25c3.06-3.38,9.43-9.4,19.27-12.14,20.98-5.84,38.47,8.57,40.23,10.07-1.88,3.21-5.09,7.8-10.25,12.08-2.51,2.08-4.99,3.68-7.22,4.91-2.46,1.35-5.23,2.03-8.03,1.98-3.91-.08-8.98-.69-14.5-2.73-10.58-3.91-16.85-10.84-19.5-14.16Z"/></g></svg>