<?xml version="1.0" encoding="UTF-8"?><svg id="Ebene_1" xmlns="http://www.w3.org/2000/svg" viewBox="0 0 384 352.39"><path d="m384,72.68v207.02c-.22.71-.55,1.4-.65,2.13-5.74,40.99-38.23,70.18-79.47,70.35-74.59.3-149.17.28-223.76,0-38.34-.14-69.83-25.87-78.26-62.97-.72-3.15-1.24-6.34-1.86-9.51,0-69.01,0-138.01,0-207.02.23-.83.56-1.65.67-2.5C6.14,29.79,39.12.34,80.12.2c74.59-.27,149.18-.25,223.77,0,38.31.13,69.76,25.79,78.25,62.98.72,3.15,1.25,6.34,1.87,9.51Zm-32.06,32.67c-.37-.16-.73-.33-1.1-.49-.97,1.14-1.88,2.35-2.93,3.41-32.52,32.53-65.04,65.06-97.61,97.54-3,2.99-6.13,5.91-9.49,8.49-32.25,24.81-76.85,21.65-106.19-7.58-33.03-32.9-65.96-65.9-98.94-98.86-.99-.99-2.03-1.92-3.43-3.24-.1,1.4-.18,2.02-.18,2.63,0,55.12-.15,110.25.07,165.37.11,26.79,21.34,47.53,48.21,47.55,74.49.07,148.98.04,223.47-.02,3.47,0,7.02-.35,10.4-1.11,22.71-5.08,37.68-24.15,37.7-48.09.05-54,.02-108,.02-161.99,0-1.2,0-2.4,0-3.6ZM191.99,32.18c-37.12,0-74.23-.15-111.35.06-19.4.11-33.8,9.07-43.29,26.04-1.59,2.84-1.42,4.62,1,7.03,39.67,39.51,79.22,79.14,118.83,118.71,20,19.98,49.6,20.01,69.68-.02,39.72-39.64,79.34-79.37,119.08-118.98,2.04-2.03,2.39-3.6,1.04-6.1-9.33-17.21-23.69-26.52-43.27-26.66-37.24-.26-74.48-.08-111.72-.08Z"/></svg>