<svg xmlns="http://www.w3.org/2000/svg" width="35" height="24" viewBox="0 0 35 24" fill="none">
  <path d="M0.0078125 1.15041C0.318182 0.274069 0.966306 -0.0089157 1.87003 0.000212814C12.3222 0.0184698 22.7743 0.00934189 33.2265 0.00934189C33.4821 0.00934189 33.7559 0.0184698 34.0024 0.091498C34.6597 0.283197 35.0704 0.94958 34.9883 1.62509C34.9061 2.31886 34.3493 2.86657 33.6464 2.91221C33.5003 2.92134 33.3543 2.92134 33.1991 2.92134C22.7378 2.92134 12.2765 2.91221 1.81526 2.93047C0.920663 2.93047 0.299925 2.62923 0.0078125 1.76202C0.0078125 1.56119 0.0078125 1.35123 0.0078125 1.15041Z" fill="#062539"/>
  <path d="M0.00912907 21.5825C0.301242 20.7153 0.921979 20.4141 1.81657 20.4141C12.3326 20.4323 22.8578 20.4232 33.3738 20.4232C34.2137 20.4232 34.7705 20.8248 34.9531 21.5551C35.1448 22.3311 34.6518 23.1344 33.8668 23.2987C33.6568 23.3443 33.4377 23.3443 33.2187 23.3534C22.7665 23.3534 12.3144 23.3534 1.86222 23.3626C0.958493 23.3626 0.319498 23.0887 0 22.2124C0.00912851 21.9933 0.00912907 21.7833 0.00912907 21.5825Z" fill="#062539"/>
  <path d="M0.00912907 10.9145C0.0547716 10.8232 0.100414 10.741 0.146057 10.6497C0.401655 10.1385 0.80331 9.84642 1.37841 9.80991C1.50621 9.80078 1.62488 9.80078 1.75268 9.80078C12.2505 9.80078 22.7483 9.80078 33.246 9.80078C33.4925 9.80078 33.7572 9.80991 33.9855 9.87381C34.661 10.0746 35.0717 10.7501 34.9805 11.4348C34.8892 12.1286 34.3232 12.658 33.6203 12.6945C33.4743 12.7036 33.3282 12.7037 33.173 12.7037C22.7391 12.7037 12.3144 12.6945 1.88047 12.7128C0.976752 12.7128 0.337755 12.4481 0 11.59C0.00912851 11.3709 0.00912907 11.1427 0.00912907 10.9145Z" fill="#062539"/>
</svg>