<?xml version="1.0" encoding="UTF-8"?><svg xmlns="http://www.w3.org/2000/svg" viewBox="0 0 241.21 241.21"><defs><style>.cls-1,.cls-2{fill:#fff;}.cls-3{letter-spacing:.06em;}.cls-4{fill:none;stroke:#000;stroke-linecap:round;stroke-miterlimit:10;stroke-width:2px;}.cls-2{font-family:LubalinGraphStd-Demi, 'ITC Lubalin Graph Std';font-size:49.44px;font-weight:300;}</style></defs><g id="Ebene_1"><rect width="241.21" height="241.21"/><rect x="-6.17" y="-9.04" width="247.45" height="250.57"/></g><g id="Ebene_2"><path class="cls-1" d="m-9.75,281.95c10.38-5.05,41.78-11.39,44.15-39.03,1.96-22.87-12.67-38.62-27.41-60,0,0,.25-8.46,11.49-13.53,7.4-3.44,15.92,4.48,15.92,4.48.96.91-.02-.11,1.05.93,5.88.25,8.68.56,11.23.51.43,0,.76.37.71.8-.15,1.32-.21.75-1.09,4.81-.1.48-.56,2.27-.8,3.47-.04.2-.05.4.1.54,20.01,20.51,46.39,53.52,40.15,85.31,0,0-1.88,12.87-9.91,21.7-3.52,3.88-9.43,8.18-20.3,8.79-.66.87-1.6,1.92-2.85,2.83-1.15.84-3.65,2.14-3.65,2.14,0,0-.64,2.58-2.95,2.58-.18,0-.33-.02-.5-.02-.02,1.85.03,4.28.39,5.11.61,1.41,5.92.89,8.34,0,.94-.35,1.73-.23,2.34.04,1.09.47,1.41,1.84.75,2.83-.35.53-.84,1.04-1.52,1.3-1.69.64-9.24-1.82-11.57-1.78-3.63.06-6.95,2.64-9.87,1.45-2.38-.97-1.74-2.32-1.1-3.07.3-.36.79-.49,1.23-.36l2.23.64c.97.28,2.02,0,2.72-.74l3.3-3.48v-2.33c-1.28-.38-1.81-.87-1.81-.87,0,0-1.59-1.9-3.71-3.42-1.37-.98-2.22-2.36-2.7-3.37-12.36-1.13-20.83-4.46-44.31-14.88-1.42-.66-1.44-2.67-.03-3.35Z"/><path class="cls-4" d="m52.05,204.81s-5.84,22.96,9.72,45.55"/></g><g id="Ebene_3"><path class="cls-1" d="m190.72,289.43c-10.38-5.05-43.17-11.31-44.15-39.03-.49-13.9,2.49-17.65,11.73-42.62.61-1.65.69-3.47.29-5.19-.73-3.11-4.99-8.68-11.81-11.76-7.4-3.44-15.21,4.52-15.21,4.52-.96.91-1.09,1.03-2.16,2.06-1.85-.8-8.14-1.46-11.12-.62-.41.12-.76.36-.71.79.15,1.33,2.57,4.88,3.72,5.68.47.33.91.61,1.35.87-20.04,20.49-33.7,41.66-27.43,73.6,0,0,1.88,12.87,9.91,21.7,3.52,3.88,9.43,8.18,20.3,8.79.66.87,1.6,1.92,2.85,2.83,1.15.84,3.65,2.14,3.65,2.14,0,0,.64,2.58,2.95,2.58.18,0,.33-.02.5-.02.02,1.85-.03,4.28-.39,5.11-.61,1.41-5.92.89-8.34,0-.94-.35-1.73-.23-2.34.04-1.09.47-1.41,1.84-.75,2.83.35.53.84,1.04,1.52,1.3,1.69.64,9.24-1.82,11.57-1.78,3.63.06,6.95,2.64,9.87,1.45,2.38-.97,1.74-2.32,1.1-3.07-.3-.36-.79-.49-1.23-.36l-2.23.64c-.97.28-2.02,0-2.72-.74l-3.3-3.48v-2.33c1.28-.38,1.81-.87,1.81-.87,0,0,1.59-1.9,3.71-3.42,1.37-.98,2.22-2.36,2.7-3.37,12.36-1.13,20.83-4.46,44.31-14.88,1.42-.66,1.44-2.67.03-3.35Z"/></g><g id="Ebene_4"><path class="cls-1" d="m142.29,263.11c10.38-5.05,41.78-11.39,44.15-39.03,1.96-22.87-7.34-39.83-22.08-61.22,0,0-4.37-7.28,6.87-12.36,7.4-3.44,15.21,4.52,15.21,4.52.96.91,1.98,1.89,3.05,2.93,1.85-.8,7.67-2.44,10.22-2.48.43,0,.77.36.72.79-.15,1.33-2.57,5.88-3.72,6.68-.47.33-.91.61-1.35.87,20.04,20.49,48.7,55.66,42.43,87.6,0,0-1.88,12.87-9.91,21.7-3.52,3.88-9.43,8.18-20.3,8.79-.66.87-1.6,1.92-2.85,2.83-1.15.84-3.65,2.14-3.65,2.14,0,0-.64,2.58-2.95,2.58-.18,0-.33-.02-.5-.02-.02,1.85.03,4.28.39,5.11.61,1.41,5.92.89,8.34,0,.94-.35,1.73-.23,2.34.04,1.09.47,1.41,1.84.75,2.83-.35.53-.84,1.04-1.52,1.3-1.69.64-9.24-1.82-11.57-1.78-3.63.06-6.95,2.64-9.87,1.45-2.38-.97-1.74-2.32-1.1-3.07.3-.36.79-.49,1.23-.36l2.23.64c.97.28,2.02,0,2.72-.74l3.3-3.48v-2.33c-1.28-.38-1.81-.87-1.81-.87,0,0-1.59-1.9-3.71-3.42-1.37-.98-2.22-2.36-2.7-3.37-12.36-1.13-20.83-4.46-44.31-14.88-1.42-.66-1.44-2.67-.03-3.35Z"/><path class="cls-4" d="m209.07,194.86s-7.9,27.04,11.6,53.25"/></g><g id="Schrift"><text class="cls-2" transform="translate(10.48 48.66)"><tspan x="0" y="0">Pigeon</tspan><tspan x="0" y="59.32">P</tspan><tspan class="cls-3" x="29.66" y="59.32">a</tspan><tspan x="65.25" y="59.32">rk</tspan></text></g></svg>