<?xml version="1.0" encoding="UTF-8"?><svg id="Ebene_1" xmlns="http://www.w3.org/2000/svg" viewBox="0 0 384 384"><defs><style>.cls-1{fill:#fff;}</style></defs><path d="m220.5,384c-9.59-3.49-12.78-10.52-12.67-20.43.41-37.31-15.74-65.48-49.04-82.36-53.48-27.13-118.08,7.58-125.88,67.04-.66,5.06-1.02,10.24-.76,15.32.52,9.91-3.06,16.95-12.65,20.44h-6.75c-6.41-2.09-10.67-6.33-12.75-12.75,0-6.75,0-13.5,0-20.25,1.52-7.94,2.5-16.03,4.65-23.79,13.18-47.53,55.15-82.25,104.28-86.62,61.14-5.43,115.76,34.66,128.36,94.92,2.28,10.88,2.35,22.32,2.5,33.52.11,7.93-5.4,12.45-12.54,14.97h-6.75Z"/><path d="m287.25,0c4.23.97,8.51,1.74,12.68,2.93,33.22,9.45,54.52,40.72,51.76,75.87-2.58,32.88-29.55,60.58-62.86,64.57-43.62,5.23-81.85-29.14-80.83-72.68.84-35.76,27.21-65.29,62.52-70.02.84-.11,1.66-.44,2.48-.67,4.75,0,9.5,0,14.25,0Zm-7.53,111.9c22.13.17,40.31-17.75,40.32-39.72,0-22.16-17.72-39.94-39.96-40.1-21.89-.16-39.95,17.67-40.07,39.55-.12,22.22,17.51,40.1,39.71,40.27Z"/><path d="m384,291.75c-.45.85-.94,1.68-1.34,2.55-3.07,6.8-9.51,10.39-17.04,9.47-6.73-.82-12.28-6.19-13.33-13.3-1.09-7.39-1.13-15.01-2.94-22.21-14.27-56.98-83.72-79.34-128.65-41.53-4.71,3.96-9.61,6.87-15.97,5.46-6.4-1.42-10.69-5.37-12.3-11.76-1.6-6.38.32-11.86,5.23-16.2,15.52-13.71,33.46-22.65,53.82-26.33,60.03-10.85,116.71,26.89,129.95,86.39,1.08,4.85,1.71,9.8,2.56,14.71v12.75Z"/><path class="cls-1" d="m0,371.25c2.08,6.42,6.34,10.66,12.75,12.75H0v-12.75Z"/><path d="m120.19,207.92c-39.89-.01-72.26-32.18-72.18-71.73.08-40.18,32.29-72.25,72.53-72.22,39.24.03,71.4,32.53,71.45,72.19.04,39.39-32.35,71.77-71.8,71.76Zm-40.11-72.03c-.06,22.16,17.72,40.04,39.9,40.14,21.83.1,39.87-17.85,39.93-39.73.06-22.42-17.73-40.29-40.1-40.29-21.89,0-39.68,17.86-39.73,39.88Z"/></svg>