<?xml version="1.0" encoding="UTF-8"?><svg id="Ebene_1" xmlns="http://www.w3.org/2000/svg" viewBox="0 0 384 384"><path d="m0,312C0,232,0,152,0,72c.23-.69.57-1.36.68-2.06C5.41,39.33,21.98,17.79,50.52,5.87c6.79-2.84,14.3-3.96,21.48-5.87,80,0,160,0,240,0,.69.23,1.36.59,2.06.68,33.42,4.31,60.18,28.55,67.84,61.52.81,3.49,1.4,7.03,2.09,10.55v238.5c-.24.95-.56,1.88-.69,2.84-4.34,32.6-27.17,58.69-58.94,67.19-4.31,1.15-8.74,1.82-13.11,2.72H72.75c-.83-.22-1.65-.55-2.5-.66-32.36-4.07-58.74-26.87-67.35-58.32C1.73,320.74.96,316.34,0,312Zm32.28-79.16c1.42-1.32,2.42-2.19,3.36-3.12,16.97-16.96,33.95-33.92,50.91-50.89,15.15-15.16,33.39-23.55,54.81-24.21,23.44-.72,43.49,7.6,60.07,24.17,47.47,47.45,94.93,94.91,142.35,142.41,1.01,1.01,1.48,2.56,2.21,3.85,4.79-7.99,5.97-15.24,5.97-22.83-.04-73.49-.02-146.98-.05-220.48,0-3.11-.04-6.28-.58-9.33-4.35-24.46-23.58-40.32-48.9-40.33-73.62-.03-147.23-.02-220.85.01-3.11,0-6.28.05-9.33.6-24.18,4.37-40.14,23.5-40.18,48.26-.07,49.24-.02,98.49-.01,147.73,0,1.18.12,2.37.22,4.16Zm292.72,115.01c-1.83-1.93-2.73-2.93-3.68-3.88-47.28-47.29-94.54-94.59-141.84-141.86-21.01-21-49.97-20.96-70.99.04-22.19,22.18-44.08,44.67-66.72,66.38-7.25,6.95-11.16,13.86-9.83,23.96.99,7.51-.04,15.38,1.56,22.71,4.69,21.45,23.62,36.59,45.77,36.65,74.99.18,149.99.08,224.98.07,1.37,0,2.79.09,4.11-.2,5.28-1.15,10.53-2.43,16.63-3.87Z"/><path d="m200.08,112.07c.1-31.02,24.91-56.01,55.58-55.98,31.51.02,56.46,25.02,56.31,56.43-.15,30.77-25.52,55.64-56.59,55.48-30.48-.15-55.41-25.36-55.31-55.93Zm79.83-.07c0-13.35-10.8-24.16-24-24.03-13.25.13-24.05,11.05-23.95,24.22.1,13.11,10.81,23.73,23.94,23.74,13.44,0,24.02-10.53,24.02-23.93Z"/></svg>